<?xml version="1.0" standalone="no"?>
<!DOCTYPE svg PUBLIC "-//W3C//DTD SVG 1.1//EN" "http://www.w3.org/Graphics/SVG/1.1/DTD/svg11.dtd" >
<svg xmlns="http://www.w3.org/2000/svg">
<metadata>Generated by IcoMoon</metadata>
<defs>
<font id="youtube" horiz-adv-x="1024">
<font-face units-per-em="1024" ascent="960" descent="-64" />
<missing-glyph horiz-adv-x="1024" />
<glyph unicode="&#x20;" horiz-adv-x="512" d="" />
<glyph unicode="&#xe900;" glyph-name="arrow-bottom" d="M512 290.133l-273.068 268.8 29.867 29.867 238.934-238.933 238.933 238.933 29.867-29.867-264.533-268.8z" />
<glyph unicode="&#xe901;" glyph-name="arrow-top" d="M785.067 337.067l-273.067 268.8-273.068-268.8 34.133-34.133 238.934 243.2 238.933-243.2 34.133 34.133z" />
<glyph unicode="&#xe902;" glyph-name="create" d="M597.333 405.333h-128v-128h-85.333v128h-128v85.333h128v128h85.333v-128h128v-85.333zM725.333 704h-597.333v-512h597.333v272.64l170.667-78.080v208.213l-170.667-78.080v187.307zM768 746.667v-163.413l170.667 78.080v-341.333l-170.667 78.080v-248.747h-682.667v597.333h682.667z" />
<glyph unicode="&#xe903;" glyph-name="explore" d="M418.133 541.867l-163.413-351.147 351.147 163.413 163.413 351.147-351.147-163.413zM558.080 415.147c-8.96-12.373-21.76-20.48-36.693-23.040-2.987-0.427-6.4-0.853-9.387-0.853-11.947 0-23.040 3.413-32.853 10.667-12.373 8.96-20.48 21.76-23.040 36.693s0.853 30.293 9.813 42.24c8.96 12.373 21.76 20.48 36.693 23.040s29.867-0.853 42.24-9.813c12.373-8.96 20.48-21.76 23.040-36.693s-0.853-29.867-9.813-42.24zM512 832c211.627 0 384-172.373 384-384s-172.373-384-384-384c-211.627 0-384 172.373-384 384s172.373 384 384 384zM512 874.667c-235.52 0-426.667-191.147-426.667-426.667s191.147-426.667 426.667-426.667c235.52 0 426.667 191.147 426.667 426.667s-191.147 426.667-426.667 426.667z" />
<glyph unicode="&#xe904;" glyph-name="explore-fill" d="M479.147 401.92c-12.373 8.96-20.48 21.76-23.040 36.693s0.853 30.293 9.813 42.24c8.96 12.373 21.76 20.48 36.693 23.040s29.867-0.853 42.24-9.813c12.373-8.96 20.48-21.76 23.040-36.693s-0.853-30.293-9.813-42.24c-8.96-12.373-21.76-20.48-36.693-23.040-2.987-0.427-6.4-0.853-9.387-0.853-11.947 0-23.467 3.413-32.853 10.667zM938.667 448c0-235.52-191.147-426.667-426.667-426.667s-426.667 191.147-426.667 426.667c0 235.52 191.147 426.667 426.667 426.667s426.667-191.147 426.667-426.667zM769.28 705.28l-351.147-163.413-163.413-351.147 351.147 163.413 163.413 351.147z" />
<glyph unicode="&#xe905;" glyph-name="hamburger" d="M896 704h-768v42.667h768v-42.667zM896 490.667h-768v-42.667h768v42.667zM896 234.667h-768v-42.667h768v42.667z" />
<glyph unicode="&#xe906;" glyph-name="home" d="M512 775.253l298.667-261.12v-407.467h-170.667v256h-256v-256h-170.667v407.467l298.667 261.12zM512 832l-341.333-298.667v-469.333h256v256h170.667v-256h256v469.333l-341.333 298.667z" />
<glyph unicode="&#xe907;" glyph-name="home-fill" d="M170.667 533.333v-469.333h256v256h170.667v-256h256v469.333l-341.333 298.667-341.333-298.667z" />
<glyph unicode="&#xe908;" glyph-name="left-bottom" d="M318.080 150.4l297.6 297.6-297.6 297.6 45.44 45.44 342.4-343.040-342.4-342.4-45.44 44.8z" />
<glyph unicode="&#xe909;" glyph-name="library" d="M469.333 661.333l256-149.333-256-149.333v298.667zM768 106.667h-597.333v597.333h-42.667v-640h640v42.667zM896 192h-640v640h640v-640zM298.667 234.667h554.667v554.667h-554.667v-554.667z" />
<glyph unicode="&#xe90a;" glyph-name="library-fill" d="M170.667 106.667h597.333v-42.667h-640v640h42.667v-597.333zM896 832v-640h-640v640h640zM725.333 512l-256 149.333v-298.667l256 149.333z" />
<glyph unicode="&#xe90b;" glyph-name="liked" d="M800.853 490.667h-180.48l64.853 210.773c13.653 43.947-22.187 87.893-71.68 87.893-24.747 0-48.64-10.24-64.853-27.733l-250.027-270.933h-170.667v-426.667h615.68c45.227 0 84.48 28.587 93.44 68.693l57.173 256c11.52 52.907-33.28 101.973-93.44 101.973zM298.667 106.667h-128v341.333h128v-341.333zM852.48 398.080l-57.173-256c-4.267-20.48-26.027-35.413-51.627-35.413h-402.347v367.36l238.933 258.56c8.107 8.96 20.48 14.080 33.28 14.080 11.093 0 21.333-4.693 26.88-12.8 2.987-4.267 6.4-11.093 3.84-20.053l-64.853-210.773-17.067-55.040h238.080c17.493 0 34.133-7.253 43.947-19.627 5.547-6.4 11.093-17.067 8.107-30.293z" />
<glyph unicode="&#xe90c;" glyph-name="liked-fill" d="M128 490.667h128v-426.667h-128v426.667zM800.853 490.667h-180.48l64.853 210.773c13.653 43.947-22.187 87.893-71.68 87.893-24.747 0-48.64-10.24-64.853-27.733l-250.027-270.933v-426.667h445.013c45.227 0 84.48 28.587 93.44 68.693l57.173 256c11.52 52.907-33.28 101.973-93.44 101.973z" />
<glyph unicode="&#xe90d;" glyph-name="pause" d="M256 149.333h170.667v597.333h-170.667v-597.333zM597.333 746.667v-597.333h170.667v597.333h-170.667z" />
<glyph unicode="&#xe90e;" glyph-name="premium" d="M426.665 561.067l213.335-113.067-213.335-113.067v226.133zM512 704c-107.767 2.097-215.549-3.32-322.561-16.213-10.785-3.025-20.611-8.774-28.532-16.695s-13.67-17.746-16.695-28.532c-11.43-64.21-16.858-129.344-16.213-194.56-0.644-65.216 4.783-130.351 16.213-194.56 3.025-10.786 8.774-20.612 16.695-28.531 7.921-7.923 17.746-13.67 28.532-16.695 107.013-12.894 214.794-18.313 322.561-16.213 107.763-2.099 215.548 3.319 322.56 16.213 10.786 3.025 20.608 8.772 28.531 16.695 7.919 7.919 13.67 17.745 16.695 28.531 11.43 64.209 16.858 129.344 16.213 194.56 0.644 65.216-4.783 130.35-16.213 194.56-3.025 10.785-8.777 20.611-16.695 28.532-7.923 7.921-17.745 13.67-28.531 16.695-107.012 12.893-214.797 18.31-322.56 16.213v0zM512 746.667c0 0 266.667 0 333.227-17.92 18.095-4.879 34.594-14.422 47.846-27.674s22.793-29.751 27.674-47.846c12.356-67.7 18.355-136.41 17.92-205.227 0.435-68.817-5.564-137.527-17.92-205.227-4.881-18.095-14.421-34.594-27.674-47.846s-29.751-22.793-47.846-27.674c-66.56-17.92-333.227-17.92-333.227-17.92s-266.668 0-333.228 17.92c-18.095 4.881-34.593 14.421-47.846 27.674s-22.795 29.751-27.674 47.846c-12.358 67.699-18.357 136.41-17.92 205.227-0.437 68.817 5.562 137.526 17.92 205.227 4.879 18.095 14.422 34.594 27.674 47.846s29.751 22.795 47.846 27.674c66.56 17.92 333.228 17.92 333.228 17.92z" />
<glyph unicode="&#xe90f;" glyph-name="premium-fill" d="M920.768 653.227c-4.877 18.095-14.421 34.594-27.674 47.846s-29.751 22.795-47.846 27.674c-66.56 17.92-333.227 17.92-333.227 17.92s-266.666 0-333.226-17.92c-18.095-4.879-34.593-14.422-47.846-27.674s-22.795-29.751-27.674-47.846c-12.358-67.7-18.357-136.41-17.92-205.227-0.437-68.817 5.562-137.527 17.92-205.227 4.879-18.095 14.422-34.594 27.674-47.846s29.751-22.793 47.846-27.674c66.56-17.92 333.226-17.92 333.226-17.92s266.667 0 333.227 17.92c18.095 4.881 34.594 14.421 47.846 27.674s22.797 29.751 27.674 47.846c12.361 67.699 18.359 136.41 17.92 205.227 0.439 68.817-5.559 137.526-17.92 205.227v0zM426.688 334.933v226.133l213.333-113.067-213.333-113.067z" />
<glyph unicode="&#xe910;" glyph-name="save" d="M938.667 405.333h-170.667v-170.667h-85.333v170.667h-170.667v85.333h170.667v170.667h85.333v-170.667h170.667v-85.333zM597.333 661.333h-512v-42.667h512v42.667zM85.333 448h341.333v42.667h-341.333v-42.667zM85.333 277.333h341.333v42.667h-341.333v-42.667z" />
<glyph unicode="&#xe911;" glyph-name="search" d="M890.453 99.413l-238.507 238.507c45.653 52.48 73.387 120.747 73.387 195.413 0 165.12-133.547 298.667-298.667 298.667s-298.667-133.547-298.667-298.667c0-165.12 133.547-298.667 298.667-298.667 74.667 0 142.933 27.733 195.413 72.96l238.507-238.507 29.867 30.293zM426.667 277.333c-141.227 0-256 114.773-256 256s114.773 256 256 256c141.227 0 256-114.773 256-256s-114.773-256-256-256z" />
<glyph unicode="&#xe912;" glyph-name="subscriptions" d="M426.667 192v256l213.333-128-213.333-128zM725.333 832h-426.667v-42.667h426.667v42.667zM853.333 704h-682.667v-42.667h682.667v42.667zM938.667 576h-853.333v-512h853.333v512zM128 533.333h768v-426.667h-768v426.667z" />
<glyph unicode="&#xe913;" glyph-name="subscriptions-fill" d="M853.333 661.333h-682.667v42.667h682.667v-42.667zM938.667 576v-512h-853.333v512h853.333zM640 320l-213.333 128v-256l213.333 128zM725.333 832h-426.667v-42.667h426.667v42.667z" />
<glyph unicode="&#xe914;" glyph-name="your-videos" d="M426.667 618.667l256-170.667-256-170.667v341.333zM896 832v-768h-768v768h768zM853.333 789.333h-682.667v-682.667h682.667v682.667z" />
<glyph unicode="&#xe915;" horiz-adv-x="4608" d="M1432.202 800.090c-16.855 62.977-66.35 112.467-129.326 129.325-114.028 30.585-571.484 30.585-571.484 30.585s-457.45 0-571.483-30.585c-62.976-16.858-112.466-66.348-129.324-129.325-30.585-114.032-30.585-352.090-30.585-352.090s0-238.060 30.585-352.092c16.858-62.976 66.348-112.466 129.324-129.321 114.032-30.587 571.483-30.587 571.483-30.587s457.457 0 571.484 30.587c62.976 16.855 112.471 66.345 129.326 129.321 30.587 114.033 30.587 352.092 30.587 352.092s-0.123 238.058-30.587 352.090z" />
<glyph unicode="&#xe916;" horiz-adv-x="4608" d="M584.975 228.588l380.027 219.392-380.027 219.396v-438.788z" />
<glyph unicode="&#xe917;" horiz-adv-x="4608" d="M1771.643 294.216l-164.244 593.159h143.293l57.559-268.884c14.689-66.228 25.405-122.702 32.389-169.422h4.214c4.818 33.475 15.657 89.588 32.394 168.459l59.602 269.848h143.293l-166.292-593.159v-284.539h-142.326v284.539h0.118z" />
<glyph unicode="&#xe918;" horiz-adv-x="4608" d="M2123.249 28.483c-28.897 19.507-49.49 49.853-61.773 91.034-12.16 41.18-18.299 95.846-18.299 164.244v93.082c0 68.997 6.984 124.506 20.951 166.289s35.763 72.369 65.382 91.514c29.624 19.146 68.516 28.779 116.685 28.779 47.442 0 85.371-9.754 114.028-29.261 28.539-19.507 49.49-50.092 62.735-91.514 13.245-41.543 19.871-96.81 19.871-165.808v-93.082c0-68.398-6.502-123.305-19.384-164.726-12.887-41.544-33.838-71.89-62.74-91.034-28.897-19.149-68.152-28.78-117.642-28.78-51.057-0.118-90.911 9.754-119.813 29.261zM2285.327 128.906c7.946 20.951 12.042 55.030 12.042 102.472v199.767c0 46-3.973 79.716-12.042 100.909-8.069 21.313-22.154 31.909-42.388 31.909-19.502 0-33.352-10.596-41.298-31.909-8.069-21.314-12.042-54.909-12.042-100.909v-199.767c0-47.442 3.85-81.638 11.561-102.472 7.706-20.951 21.55-31.427 41.779-31.427 20.234 0 34.319 10.476 42.388 31.427z" />
<glyph unicode="&#xe919;" horiz-adv-x="4608" d="M2908.948 9.554h-112.947l-12.524 78.51h-3.128c-30.71-59.244-76.708-88.863-138.117-88.863-42.506 0-73.933 13.967-94.162 41.779-20.229 27.94-30.346 71.526-30.346 130.77v479.129h144.379v-470.696c0-28.662 3.128-49.009 9.39-61.174 6.262-12.16 16.737-18.299 31.427-18.299 12.524 0 24.566 3.85 36.127 11.556 11.561 7.711 19.988 17.464 25.646 29.261v509.473h144.256v-641.446z" />
<glyph unicode="&#xe91a;" horiz-adv-x="4608" d="M3301.146 771.196h-143.293v-761.616h-141.245v761.616h-143.293v116.079h427.832v-116.079z" />
<glyph unicode="&#xe91b;" horiz-adv-x="4608" d="M3649.372 9.554h-112.947l-12.524 78.51h-3.128c-30.705-59.244-76.703-88.863-138.117-88.863-42.506 0-73.933 13.967-94.162 41.779-20.229 27.94-30.346 71.526-30.346 130.77v479.129h144.379v-470.696c0-28.662 3.128-49.009 9.39-61.174 6.262-12.16 16.737-18.299 31.432-18.299 12.518 0 24.561 3.85 36.122 11.556 11.561 7.711 19.988 17.464 25.646 29.261v509.473h144.256v-641.446z" />
<glyph unicode="&#xe91c;" horiz-adv-x="4608" d="M4127.186 548.419c-8.791 40.459-22.886 69.72-42.388 87.902-19.507 18.182-46.356 27.213-80.553 27.213-26.491 0-51.297-7.465-74.296-22.517s-40.822-34.679-53.345-59.123h-1.080v337.881h-139.080v-910.088h119.209l14.689 60.687h3.133c11.197-21.673 27.935-38.651 50.212-51.297 22.277-12.524 47.084-18.785 74.296-18.785 48.768 0 84.772 22.518 107.771 67.436 22.999 45.036 34.555 115.236 34.555 210.842v101.509c0 71.648-4.454 127.881-13.123 168.34zM3994.849 286.761c0-46.72-1.925-83.328-5.78-109.819-3.85-26.491-10.235-45.399-19.384-56.474-9.032-11.197-21.315-16.737-36.608-16.737-11.919 0-22.876 2.77-32.993 8.428-10.112 5.54-18.299 13.967-24.561 25.047v364.010c4.813 17.46 13.245 31.669 25.165 42.867 11.802 11.198 24.806 16.738 38.651 16.738 14.694 0 26.010-5.78 33.961-17.22 8.064-11.559 13.604-30.826 16.737-58.039 3.128-27.213 4.695-65.866 4.695-116.078v-82.724h0.118z" />
<glyph unicode="&#xe91d;" horiz-adv-x="4608" d="M4345.124 249.795c0-41.18 1.203-72.008 3.615-92.6 2.406-20.588 7.465-35.523 15.171-45.036 7.706-9.39 19.507-14.085 35.523-14.085 21.555 0 36.485 8.428 44.431 25.165 8.069 16.737 12.406 44.672 13.128 83.686l124.508-7.342c0.722-5.54 1.080-13.245 1.080-22.999 0-59.244-16.256-103.557-48.645-132.818s-78.269-43.95-137.513-43.95c-71.163 0-121.016 22.277-149.555 66.949-28.657 44.672-42.865 113.669-42.865 207.114v111.985c0 96.209 14.812 166.531 44.431 210.843 29.624 44.313 80.317 66.469 152.202 66.469 49.49 0 87.542-9.031 114.033-27.214s45.153-46.359 55.992-84.771c10.839-38.412 16.256-91.394 16.256-159.065v-109.819h-241.792v-32.512zM4363.428 552.033c-7.347-9.031-12.16-23.842-14.689-44.432-2.412-20.591-3.615-51.778-3.615-93.684v-45.998h105.605v45.998c0 41.184-1.444 72.371-4.214 93.684s-7.828 36.244-15.176 45.034c-7.342 8.67-18.662 13.125-33.956 13.125-15.411-0.12-26.732-4.696-33.956-13.727z" />
<glyph unicode="&#xe91e;" glyph-name="disliked" d="M725.333 789.333h-445.013c-45.653 0-84.48-28.587-93.44-68.693l-57.173-256c-11.52-52.907 33.28-101.973 93.44-101.973h180.48l-64.853-210.773c-13.653-43.947 22.187-87.893 71.68-87.893 24.746 0 48.64 10.24 64.853 27.733l250.027 270.933h170.667v426.667h-170.667zM443.733 120.747c-8.107-8.96-20.48-14.080-33.28-14.080-11.093 0-21.333 4.693-26.88 12.8-2.987 4.267-6.4 11.093-3.84 20.053l64.853 210.773 17.067 55.040h-238.506c-17.493 0-34.133 7.253-43.947 19.627-5.12 6.4-10.667 17.067-7.68 30.72l57.173 256c4.267 20.053 26.027 34.987 51.627 34.987h402.346v-367.36l-238.933-258.56zM853.333 405.333h-128v341.333h128v-341.333z" />
<glyph unicode="&#xe91f;" glyph-name="disliked-fill" d="M896 405.333h-128v426.667h128v-426.667zM223.147 405.333h180.48l-64.853-210.773c-13.653-43.947 22.187-87.893 71.68-87.893 24.747 0 48.64 10.24 64.853 27.733l250.027 270.933v426.667h-445.013c-45.227 0-84.48-28.587-93.44-68.693l-57.173-256c-11.52-52.907 33.28-101.973 93.44-101.973z" />
<glyph unicode="&#xe920;" glyph-name="play" d="M341.333 746.667v-597.333l469.333 298.667-469.333 298.667z" />
<glyph unicode="&#xe921;" glyph-name="edit" d="M128 224v-160h160l471.893 471.893-160 160-471.893-471.893zM913.493 689.493l-160 160-107.947-108.373 160-160 107.947 108.373z" />
<glyph unicode="&#xe922;" glyph-name="fullscreen" d="M298.667 362.667h-85.333v-213.333h213.333v85.333h-128v128zM213.333 533.333h85.333v128h128v85.333h-213.333v-213.333zM725.333 234.667h-128v-85.333h213.333v213.333h-85.333v-128zM597.333 746.667v-85.333h128v-128h85.333v213.333h-213.333z" />
<glyph unicode="&#xe923;" glyph-name="fullscreen-exit" d="M213.333 277.333h128v-128h85.333v213.333h-213.333v-85.333zM341.333 618.667h-128v-85.333h213.333v213.333h-85.333v-128zM597.333 149.333h85.333v128h128v85.333h-213.333v-213.333zM682.667 618.667v128h-85.333v-213.333h213.333v85.333h-128z" />
<glyph unicode="&#xe924;" glyph-name="high-volume" d="M128 576.001v-256.001h170.667l213.333-213.333v682.668l-213.333-213.333h-170.667zM704 448c0 75.52-43.52 140.374-106.667 171.948v-343.468c63.147 31.147 106.667 96 106.667 171.52zM597.333 822.188v-87.893c123.307-36.693 213.333-151.040 213.333-286.294s-90.027-249.6-213.333-286.293v-87.893c171.093 38.827 298.667 191.573 298.667 374.187s-127.573 335.361-298.667 374.188z" />
<glyph unicode="&#xe925;" glyph-name="logout" d="M725.333 661.333l-60.16-60.16 110.080-110.507h-433.92v-85.333h433.92l-110.080-110.080 60.16-60.587 213.333 213.333-213.333 213.333zM170.667 746.667h341.333v85.333h-341.333c-46.933 0-85.333-38.4-85.333-85.333v-597.333c0-46.933 38.4-85.333 85.333-85.333h341.333v85.333h-341.333v597.333z" />
<glyph unicode="&#xe926;" glyph-name="low-volume" d="M789.333 448c0 75.52-43.52 140.373-106.667 171.947v-343.467c63.147 31.147 106.667 96 106.667 171.52zM213.333 576v-256h170.667l213.333-213.333v682.667l-213.333-213.333h-170.667z" />
<glyph unicode="&#xe927;" glyph-name="mute" d="M704 448c0 75.52-43.52 140.373-106.667 171.947v-94.293l104.533-104.533c1.28 8.533 2.133 17.493 2.133 26.88zM810.667 448c0-40.107-8.533-77.653-23.040-112.64l64.427-64.427c28.16 52.907 43.947 113.067 43.947 177.067 0 182.613-127.573 335.36-298.667 374.187v-87.893c123.307-36.693 213.333-151.040 213.333-286.293zM182.187 832l-54.187-54.187 201.813-201.813h-201.813v-256h170.667l213.333-213.333v287.147l181.333-181.333c-28.587-22.187-60.587-39.68-96-50.347v-87.893c58.88 13.227 112.213 40.533 157.44 77.227l87.040-87.467 54.187 54.187-713.813 713.813zM512 789.333l-89.173-89.173 89.173-89.173v178.347z" />
<glyph unicode="&#xe928;" glyph-name="your-channel" d="M128 64h768v768h-768v-768zM640 576c0-70.827-57.173-128-128-128s-128 57.173-128 128c0 70.827 57.173 128 128 128s128-57.173 128-128zM256 234.667c0 85.333 170.667 132.267 256 132.267s256-46.933 256-132.267v-42.667h-512v42.667z" />
</font>
</defs>
</svg>
