<?xml version="1.0" standalone="no"?>
<!DOCTYPE svg PUBLIC "-//W3C//DTD SVG 20010904//EN"
 "http://www.w3.org/TR/2001/REC-SVG-20010904/DTD/svg10.dtd">
<svg version="1.0" xmlns="http://www.w3.org/2000/svg"
 width="700.000000pt" height="700.000000pt" viewBox="0 0 700.000000 700.000000"
 preserveAspectRatio="xMidYMid meet">
<metadata>
Created by potrace 1.14, written by Peter Selinger 2001-2017
</metadata>
<g transform="translate(0.000000,700.000000) scale(0.100000,-0.100000)"
fill="#000000" stroke="none">
<path d="M2819 5536 c-2 -2 -121 -7 -264 -10 -143 -4 -289 -9 -325 -11 -36 -1
-128 -6 -205 -9 -77 -4 -151 -9 -165 -11 -14 -2 -74 -6 -135 -10 -108 -6 -248
-21 -380 -41 -280 -42 -493 -196 -599 -433 -28 -63 -67 -237 -81 -356 -3 -32
-8 -62 -10 -65 -1 -3 -6 -36 -9 -75 -4 -38 -9 -81 -11 -95 -5 -25 -8 -54 -20
-195 -4 -44 -9 -96 -11 -115 -23 -252 -23 -979 1 -1230 1 -19 6 -69 9 -110 7
-76 14 -140 21 -195 2 -16 7 -52 10 -80 9 -77 14 -112 31 -215 8 -52 17 -110
20 -129 12 -72 28 -121 67 -197 94 -186 282 -332 487 -379 106 -24 102 -23
343 -50 23 -2 85 -7 137 -10 52 -3 109 -8 125 -10 27 -3 81 -6 365 -20 559
-27 2055 -27 2570 0 47 2 132 7 190 10 203 10 302 18 510 39 325 35 462 87
611 236 137 137 194 268 225 520 2 19 9 60 14 90 5 30 11 80 15 110 3 30 7 66
9 80 3 14 7 51 10 83 3 31 8 81 11 110 33 318 39 1003 10 1354 -7 95 -16 190
-20 228 -11 89 -45 351 -49 370 -2 11 -7 40 -11 65 -8 49 -12 69 -20 115 -21
106 -121 273 -213 355 -96 87 -231 158 -333 175 -19 3 -50 10 -69 15 -19 5
-62 11 -95 15 -33 4 -73 8 -90 10 -45 5 -156 17 -190 20 -16 2 -86 6 -154 10
-69 4 -143 8 -165 10 -23 2 -117 7 -211 10 -93 4 -215 9 -270 12 -121 5 -1681
14 -1686 9z m230 -1333 c69 -37 126 -65 126 -63 0 3 14 -4 30 -16 17 -11 93
-54 170 -94 77 -40 163 -85 190 -100 28 -15 95 -51 150 -80 116 -61 276 -146
355 -188 30 -17 87 -46 125 -66 159 -82 176 -93 163 -103 -12 -9 -61 -35 -303
-163 -44 -23 -123 -65 -175 -92 -52 -28 -138 -73 -190 -101 -52 -27 -122 -64
-155 -82 -298 -160 -590 -314 -604 -317 -12 -3 -14 112 -15 764 -1 423 1 768
3 768 2 0 60 -30 130 -67z"/>
</g>
</svg>
